<svg xmlns="http://www.w3.org/2000/svg" viewBox="0 0 1200 600" width="1200" height="600">
  <defs>
    <linearGradient id="g" x1="0" x2="1">
      <stop offset="0" stop-color="#0b5a43" stop-opacity="0.95" />
      <stop offset="1" stop-color="#6abf98" stop-opacity="0.95" />
    </linearGradient>
  </defs>
  <rect width="1200" height="600" fill="url(#g)" rx="24" />
  <g transform="translate(80,100)" fill="#fff" opacity="0.95">
    <rect x="0" y="0" width="480" height="320" rx="16" fill="#ffffff22" />
    <g transform="translate(24,24)" fill="#fff">
      <circle cx="40" cy="40" r="28" fill="#ffffff33" />
      <rect x="88" y="12" width="320" height="24" rx="6" fill="#ffffff44" />
      <rect x="88" y="52" width="240" height="16" rx="6" fill="#ffffff22" />

      <g transform="translate(0,120)">
        <rect x="0" y="0" width="420" height="12" rx="6" fill="#ffffff22" />
        <rect x="0" y="30" width="360" height="12" rx="6" fill="#ffffff22" />
      </g>
    </g>
  </g>
  <g transform="translate(620,140)" fill="#fff" opacity="0.9">
    <path d="M0 160 C40 100 120 80 200 120 C260 150 320 120 380 110 L380 260 L0 260 Z" fill="#ffffff33" />
    <g transform="translate(20,20)">
      <rect x="0" y="0" width="520" height="320" rx="16" fill="#ffffff11" />
      <circle cx="80" cy="80" r="48" fill="#ffffff22" />
      <rect x="160" y="36" width="300" height="24" rx="8" fill="#ffffff44" />
      <rect x="160" y="72" width="220" height="16" rx="8" fill="#ffffff22" />
    </g>
  </g>
</svg>
